<?xml version="1.0" standalone="no"?><svg xmlns="http://www.w3.org/2000/svg" viewBox="0 0 1440 320"><path fill="#000000" fill-opacity="1" d="M0,128L34.3,138.7C68.6,149,137,171,206,154.7C274.3,139,343,85,411,85.3C480,85,549,139,617,170.7C685.7,203,754,213,823,202.7C891.4,192,960,160,1029,128C1097.1,96,1166,64,1234,64C1302.9,64,1371,96,1406,112L1440,128L1440,320L1405.7,320C1371.4,320,1303,320,1234,320C1165.7,320,1097,320,1029,320C960,320,891,320,823,320C754.3,320,686,320,617,320C548.6,320,480,320,411,320C342.9,320,274,320,206,320C137.1,320,69,320,34,320L0,320Z"></path></svg>